:SAMPLES-PER-SECOND 30
:FRAME-RANGE 1-2091
:FULLY-SPECIFIED
:DEGREES
1895
root  -9.41862 38.915 -50.2005 6.46912 -85.6129 -3.91503
RightUpLeg  -17.0977 4.15163 -6.61962
RightLeg  64.6363 -0.0586423 -0.73229
RightFoot  -2.57197 -0.395933 4.93092
RightToes  5.38607e-012 1.2921e-014 -6.02303e-014
Spine  -1.25849 -0.196649 -2.0805
Spine1  4.86146 -0.034424 -3.69475
HEad  14.0862 36.4347 -8.93567
LeftShoulder1  1.2182 -3.58268 -10.6832
LeftArm  -28.7151 -45.5181 -41.9926
LeftForeArm  3.29875 -11.6357 -4.22615
LeftHand  -0.390398 2.14322 13.8047
RightShoulder  2.12798 4.19666 22.1784
RightArm  -16.1659 15.4013 53.1078
RightForeArm  58.8697 4.73349 8.49772
RightHand  0.125251 -6.24309 -18.7452
LeftUpLeg  -16.2186 -5.18275 -9.73689
LeftLeg  20.129 12.4695 6.0204
LeftFoot  -6.90525 -0.253 7.59585
LeftToes  -7.20997e-011 3.75522e-011 -2.80735e-011
1896
root  -11.1614 39.1061 -49.7798 12.3683 -82.9567 -9.70384
RightUpLeg  -20.2525 4.34501 -5.66547
RightLeg  59.9767 -1.2493 -2.82759
RightFoot  -5.27015 -0.232379 3.7036
RightToes  5.38607e-012 1.2921e-014 -6.02303e-014
Spine  -0.860217 -0.461632 -1.48065
Spine1  3.72908 -0.400028 -3.06005
HEad  14.2933 35.8244 -9.30208
LeftShoulder1  1.2473 -3.83889 -10.4313
LeftArm  -31.4752 -45.7232 -40.2451
LeftForeArm  1.91902 -10.7669 -3.4815
LeftHand  -0.40741 1.91218 13.4791
RightShoulder  2.02241 3.7708 22.3982
RightArm  -15.3788 12.4122 52.4815
RightForeArm  57.2683 6.18035 9.06213
RightHand  0.148064 -6.4042 -18.4451
LeftUpLeg  -12.4229 -3.6008 -9.74626
LeftLeg  18.3037 9.30309 4.75264
LeftFoot  -8.74532 -0.154056 9.1065
LeftToes  -7.20997e-011 3.75522e-011 -2.80735e-011
1897
root  -12.8718 39.1809 -49.36 13.9226 -79.3829 -11.0858
RightUpLeg  -22.7627 4.03887 -4.73339
RightLeg  53.0017 -2.66853 -4.1759
RightFoot  -7.54193 -0.148323 2.92589
RightToes  5.38607e-012 1.2921e-014 -6.02303e-014
Spine  -0.429266 -0.967661 -1.29388
Spine1  2.69626 -1.02394 -2.03573
HEad  13.949 34.9847 -9.5461
LeftShoulder1  1.30617 -4.06524 -10.7239
LeftArm  -32.651 -45.4581 -38.7227
LeftForeArm  1.35564 -8.82231 -2.8799
LeftHand  -0.381903 2.03509 13.0716
RightShoulder  1.88842 3.20641 22.8305
RightArm  -13.3528 9.44289 51.4448
RightForeArm  54.8435 7.29326 9.63832
RightHand  0.0524796 -5.82885 -17.452
LeftUpLeg  -9.04977 -2.46842 -9.29203
LeftLeg  17.2443 5.47005 3.49518
LeftFoot  -10.7924 0.0166733 10.0791
LeftToes  -7.20997e-011 3.75522e-011 -2.80735e-011
1898
root  -14.5624 39.1885 -48.9105 14.107 -75.344 -10.8811
RightUpLeg  -24.6965 3.48792 -4.00696
RightLeg  43.8601 -4.37943 -4.78617
RightFoot  -8.58993 -0.115823 2.39422
RightToes  5.38607e-012 1.2921e-014 -6.02303e-014
Spine  -0.544484 -1.68366 -1.17504
Spine1  2.4612 -1.79126 -1.00063
HEad  12.6832 33.9418 -9.79898
LeftShoulder1  1.33483 -4.05862 -11.1742
LeftArm  -32.2323 -44.3454 -37.6615
LeftForeArm  0.0484488 -6.8834 -2.64739
LeftHand  -0.335064 2.32657 12.4931
RightShoulder  1.76574 2.61316 23.6988
RightArm  -15.7759 7.07241 50.6963
RightForeArm  56.3123 6.51904 9.12543
RightHand  0.0707689 -5.94621 -17.5931
LeftUpLeg  -6.01859 -2.47189 -8.84745
LeftLeg  16.4622 2.30018 2.99843
LeftFoot  -12.6071 0.193751 10.6244
LeftToes  -7.20997e-011 3.75522e-011 -2.80735e-011
